<?xml version="1.0" encoding="utf-8"?>
<!DOCTYPE svg PUBLIC "-//W3C//DTD SVG 1.0//EN" "http://www.w3.org/TR/2001/REC-SVG-20010904/DTD/svg10.dtd">
<svg version="1.0" xmlns="http://www.w3.org/2000/svg" width="1024px" height="1024px" viewBox="0 0 1024 1024" preserveAspectRatio="xMidYMid meet">
 <g fill="#007fc3">
  <path d="M505.5 942.9 c-59.7 -3.6 -114 -47.1 -156 -125 -5.9 -10.9 -21.5 -43.8 -21.5 -45.4 0 -0.3 -0.9 -2.4 -1.9 -4.8 -2.9 -6.4 -12.5 -35.6 -16.5 -50.3 -7 -25.4 -13.4 -59.9 -16 -86.4 -1.7 -16.5 -4 -56.9 -3.3 -57.7 0.3 -0.2 3.1 1.1 6.3 2.9 9.8 5.5 35.6 17.4 50.1 23.2 58.7 23.1 126.4 34.1 188.4 30.7 21.4 -1.2 46 -3.9 60.9 -6.6 23.5 -4.4 62.3 -15.9 84.3 -24.9 14.5 -5.9 39.7 -17.5 48.2 -22.1 l8 -4.4 -0.3 13.2 c-2.2 109.2 -38.2 217.5 -96.7 290.2 -23.5 29.3 -55.7 53.2 -83.4 61.9 -15.7 4.9 -31.3 6.6 -50.6 5.5z m-15.5 -158.9 l0 -28 23.5 0 23.5 0 0 28 0 28 12 0 12 0 0 -63 0 -63 -12 0 -12 0 -0.2 24.8 -0.3 24.7 -23.2 0.3 -23.3 0.2 0 -25 0 -25 -12 0 -12 0 0 63 0 63 12 0 12 0 0 -28z"/>
 </g>
 <g fill="#00cbab">
  <path d="M259.5 534.2 c-31.3 -21.1 -55 -40.7 -82.6 -68.2 -28.2 -28.1 -44.1 -47.4 -63.2 -76.6 -15.2 -23.2 -24.3 -40 -33.1 -61 -2.6 -6 -5.1 -11.8 -5.5 -12.9 -0.5 -1.1 -2.1 -5.6 -3.6 -10 -23.1 -69.5 -11 -132.6 32.5 -169 23.2 -19.3 54.5 -32.8 91.5 -39.2 14.2 -2.5 59.8 -2.5 77.5 0 27 3.7 62 11.2 81.2 17.3 11 3.5 41 14.5 49 18 30.9 13.5 63.3 31.6 87.1 48.6 l4.7 3.5 -10.2 7.9 c-43.8 33.7 -83.7 73.5 -113.3 112.9 -27.7 36.9 -45.1 66.5 -60.2 102.5 -19 45.1 -29.4 81.9 -36.8 130.8 -0.4 2.3 -1 4.2 -1.3 4.2 -0.4 0 -6.5 -4 -13.7 -8.8z m15.5 -214.7 l0 -9.5 -27.5 0 -27.5 0 0 -18 0 -18 23.5 0 23.5 0 0 -9.5 0 -9.5 -23.5 0 -23.5 0 0 -15.5 0 -15.5 27.5 0 27.5 0 0 -9.5 0 -9.5 -40 0 -40 0 0 62 0 62 40 0 40 0 0 -9.5z"/>
 </g>
 <g fill="#f3436a">
  <path d="M489 612.9 c-51.8 -2.4 -111.5 -17.7 -162 -41.5 -25.8 -12.2 -37 -18.5 -37 -20.8 0 -4.1 4.1 -28.3 7.1 -42.6 3.5 -16.3 12 -46.5 17.3 -61.3 17.4 -48.2 39.3 -88.6 71 -131 26.9 -36 71.4 -79.7 114.7 -112.8 l11.7 -8.8 5.5 3.9 c33.1 23.1 77.5 63.5 103.4 94 9.8 11.6 27.8 35.3 36 47.5 39 58.1 66.6 129.3 75.7 195.5 0.9 6.3 1.8 12.7 2.1 14.2 0.4 2.6 -0.2 3.2 -7.3 7.3 -33.6 19.9 -89.5 40.8 -131.7 49.4 -13 2.6 -42.5 5.9 -59 6.6 -27.4 1.1 -31.5 1.2 -47.5 0.4z m1 -136.4 l0 -33.5 8.9 0 8.9 0 18.7 33.5 18.7 33.5 22.4 0 22.3 0 -20.4 -34 c-23.7 -39.3 -23.8 -39.7 -15.9 -43.9 11.2 -6 20.8 -16.9 23.9 -27.5 8.1 -27 -0.7 -50.7 -22.7 -61.1 -15.4 -7.3 -25.9 -8.5 -72.5 -8.5 l-36.3 0 0 87.5 0 87.5 22 0 22 0 0 -33.5z"/>
  <path d="M489 388.9 l0 -27.2 16.3 0.6 c21.3 0.8 26.5 2.6 31 11 1.9 3.6 2.2 5.7 2.2 15.7 0 10.4 -0.2 11.9 -2.5 16 -2 3.5 -3.8 5.1 -8.5 7.5 -5.8 2.9 -6.5 3 -22.2 3.4 l-16.3 0.3 0 -27.3z"/>
 </g>
 <g fill="#ffc757">
  <path d="M750.5 538.7 c-8.3 -55.4 -23 -103.3 -46.4 -152.2 -12.3 -25.7 -28.8 -52.3 -49.6 -79.8 -16 -21.3 -25.1 -32.1 -42.6 -50.1 -25.5 -26.3 -54.3 -51.7 -77.7 -68.3 l-4.3 -3.1 4.3 -3.4 c22.2 -17.7 67.1 -42.5 101.8 -56.1 68.6 -27.1 144.4 -37.2 198.2 -26.6 26.4 5.2 54 16.3 74.2 29.6 15.5 10.3 31.8 28.8 40.3 45.7 23.8 47.3 18.7 105.9 -15.3 173.8 -21.8 43.6 -48 79.4 -86.4 117.9 -27.8 28 -59.4 53.6 -90.2 73.2 l-5.6 3.6 -0.7 -4.2z m58.1 -245.6 c6.9 -19.9 16.4 -47.8 21.3 -62 l8.8 -25.6 -11 -0.3 c-6 -0.1 -11.2 -0.1 -11.4 0.2 -0.5 0.4 -18.5 59.4 -25.4 82.9 l-3.4 11.8 -3.4 -0.3 -3.5 -0.3 -13.1 -44.6 c-7.3 -24.6 -13.5 -45.8 -13.9 -47.3 l-0.6 -2.6 -12.6 0 c-11.6 0 -12.6 0.1 -11.9 1.8 1 2.5 41.5 122.4 41.5 122.9 0 0.2 5.9 0.2 13.1 0.1 l13.1 -0.3 12.4 -36.4z"/>
 </g>
 <g fill="#ffffff">
  <path d="M463 749 l0 -66 15 0 15 0 0 25 0 25 20.3 -0.2 20.2 -0.3 0.3 -24.7 0.2 -24.8 15 0 15 0 0 66 0 66 -15 0 -15 0 0 -28 0 -28 -20.5 0 -20.5 0 0 28 0 28 -15 0 -15 0 0 -66z"/>
  <path d="M443 422.5 l0 -90.5 39.3 0 c49.8 0 59.9 1.1 75.5 8.5 18.5 8.7 27.8 27 25.7 50.8 -1.7 20.6 -10 34.4 -25.7 43 -3.2 1.8 -5.8 3.5 -5.8 3.9 0 0.4 9.9 17.2 22 37.3 12.1 20.2 22 36.8 22 37.1 0 0.2 -12.1 0.4 -26.9 0.4 l-26.9 0 -18.7 -33.5 -18.7 -33.5 -5.9 0 -5.9 0 0 33.5 0 33.5 -25 0 -25 0 0 -90.5z m81.5 -13 c8.5 -4.2 11 -8.9 11 -20.5 0 -6.9 -0.4 -9.3 -2.2 -12.7 -4.4 -8.1 -10.2 -10.4 -28.3 -10.7 l-13 -0.3 0 24 0 23.9 13.3 -0.4 c12.3 -0.3 13.7 -0.6 19.2 -3.3z"/>
  <path d="M758.7 307.8 c-11.3 -33.6 -34.4 -101.8 -35.2 -104 -0.7 -1.7 0.5 -1.8 15.9 -1.8 l16.5 0 1 3.8 c1.7 6.1 26.1 88.6 26.7 90.2 0.3 0.8 2.6 -5.2 5.1 -13.5 12.5 -41.7 24.2 -79.7 24.6 -80.1 0.2 -0.3 7.2 -0.3 15.4 -0.2 l15.1 0.3 -10 29 c-5.5 16 -15.5 45.2 -22.3 65 l-12.3 36 -16 0.3 -16 0.2 -8.5 -25.2z"/>
  <path d="M192 267 l0 -65 43 0 43 0 0 12.5 0 12.5 -27.5 0 -27.5 0 0 12.5 0 12.5 23.5 0 23.5 0 0 12.5 0 12.5 -23.5 0 -23.5 0 0 15 0 15 27.5 0 27.5 0 0 12.5 0 12.5 -43 0 -43 0 0 -65z"/>
 </g>
</svg>